<svg width="36" height="36" viewBox="0 0 36 36" fill="none" xmlns="http://www.w3.org/2000/svg">
<rect width="36" height="36" rx="18" fill="#8041FF"/>
<path d="M11.7776 17.1111C11.7776 13.1838 14.9611 10 18.8881 10C22.8152 10 25.9987 13.1838 25.9987 17.1111C25.9987 18.1334 25.783 19.1052 25.3946 19.9837L26 24.2215L22.3685 23.3136C21.3397 23.8922 20.1525 24.2222 18.8881 24.2222M10.0008 21.5556C10.0008 22.1945 10.1356 22.8019 10.3783 23.3509L10 25.9996L12.2695 25.4321C12.9124 25.7937 13.6544 26 14.4445 26C16.8987 26 18.8881 24.0102 18.8881 21.5556C18.8881 19.101 16.8987 17.1111 14.4445 17.1111C11.9903 17.1111 10.0008 19.101 10.0008 21.5556Z" stroke="white" stroke-width="2" stroke-linecap="round" stroke-linejoin="round"/>
</svg>
