<svg width="36" height="36" viewBox="0 0 36 36" fill="none" xmlns="http://www.w3.org/2000/svg">
<rect width="36" height="36" rx="18" fill="#8041FF"/>
<path d="M15 27V20.1528C15 19.5226 15.5373 19.0116 16.2 19.0116H19.8C20.4627 19.0116 21 19.5226 21 20.1528V27M17.3046 9.21117L9.50457 14.486C9.18802 14.7001 9 15.0467 9 15.4161V25.2882C9 26.2336 9.80589 27 10.8 27H25.2C26.1941 27 27 26.2336 27 25.2882V15.4161C27 15.0467 26.812 14.7001 26.4954 14.486L18.6954 9.21117C18.2791 8.92961 17.7209 8.92961 17.3046 9.21117Z" stroke="white" stroke-width="2" stroke-linecap="round"/>
</svg>
