<svg width="44" height="44" viewBox="0 0 44 44" fill="none" xmlns="http://www.w3.org/2000/svg">
<path d="M8.80592 37.2452V29.2395H9.58516V42.8762H8.80592L6.40943 32.3173L6.4682 34.8683V42.8762H5.68896V29.2395H6.4682L8.86469 39.7962L8.80592 37.2452Z" fill="#D9D9D9"/>
<path d="M14.9224 40.9281V31.168C14.9224 30.4657 15.0747 29.9361 15.3795 29.5791C15.6856 29.2221 16.1826 29.0436 16.8705 29.0436C17.5583 29.0436 18.0553 29.2221 18.3615 29.5791C18.6662 29.9361 18.8186 30.4657 18.8186 31.168V40.9281C18.8186 41.629 18.6662 42.1608 18.3615 42.5236C18.0553 42.8878 17.5583 43.0699 16.8705 43.0699C16.1826 43.0699 15.6856 42.8878 15.3795 42.5236C15.0747 42.1608 14.9224 41.629 14.9224 40.9281ZM15.7016 31.168V40.9281C15.7016 41.3823 15.7923 41.7291 15.9737 41.9685C16.1565 42.2094 16.4554 42.3299 16.8705 42.3299C17.2855 42.3299 17.5844 42.2094 17.7672 41.9685C17.9486 41.7291 18.0393 41.3823 18.0393 40.9281V31.168C18.0393 30.7124 17.9486 30.3678 17.7672 30.1341C17.5844 29.9005 17.2855 29.7837 16.8705 29.7837C16.4554 29.7837 16.1565 29.9005 15.9737 30.1341C15.7923 30.3678 15.7016 30.7124 15.7016 31.168Z" fill="#D9D9D9"/>
<path d="M24.4102 29.2395L25.4419 36.4855L26.0274 41.063L26.6107 36.4855L27.6425 29.2395H28.4413L26.417 42.8958H25.6378L23.6113 29.2395H24.4102Z" fill="#D9D9D9"/>
<path d="M36.3119 42.8762L35.9419 40.323H33.43L33.0774 42.8762H32.2808L34.305 29.2199H35.0843L37.1107 42.8762H36.3119ZM34.1113 35.6279L33.5454 39.5829H35.8439L35.2802 35.6279L34.6947 31.0505L34.1113 35.6279Z" fill="#D9D9D9"/>
<path d="M21.605 23.6441C27.8773 23.6441 32.962 18.5594 32.962 12.2871C32.962 6.01481 27.8773 0.930115 21.605 0.930115C15.3327 0.930115 10.248 6.01481 10.248 12.2871C10.248 18.5594 15.3327 23.6441 21.605 23.6441Z" fill="#D9D9D9"/>
<path d="M1.49971 20.9148V20.5622H0.352616V20.2117H1.41046V19.8569H0.352616V19.5021H1.49971V19.1473H0V20.9148H1.49971Z" fill="white"/>
<path d="M3.64142 20.9148L3.81555 20.7406V20.0311L3.64142 19.8547H2.58357V19.5021H3.46511V19.6784H3.81555V19.328L3.64142 19.1473H2.40509L2.23096 19.328V20.0855L2.40509 20.2117H3.46511V20.5622H2.58357V20.388H2.23096V20.7406L2.40509 20.9148H3.64142Z" fill="white"/>
<path d="M5.46981 20.9148V19.5021H6.08362V19.1473H4.49902V19.5021H5.11719V20.9148H5.46981Z" fill="white"/>
<path d="M6.3623 20.9148H6.71492V20.5621H6.3623V20.9148Z" fill="white"/>
<path d="M37.0481 19.5021V19.6806L35.814 20.5622V20.9148H37.4007V20.5622H36.4147L37.4007 19.8569V19.328L37.2266 19.1473H35.9881L35.814 19.328V19.6784H36.1688V19.5021H37.0481Z" fill="white"/>
<path d="M38.4607 20.3314V19.5021H39.1137L38.4607 20.3314ZM39.3423 20.5622H38.7002L39.3423 19.7394V20.5622ZM39.5186 20.9148L39.6927 20.7406V19.328L39.5186 19.1473H38.2801L38.106 19.328V20.7406L38.2801 20.9148H39.5186Z" fill="white"/>
<path d="M41.6082 19.5021V19.6806L40.374 20.5622V20.9148H41.9608V20.5622H40.9748L41.9608 19.8569V19.328L41.7845 19.1473H40.5482L40.374 19.328V19.6784H40.7266V19.5021H41.6082Z" fill="white"/>
<path d="M42.3896 20.2117V20.5622H43.4475V20.9148H43.8001V20.5622H43.9742V20.2117H43.8001V19.1473H43.4475L42.3896 20.2117ZM43.4475 20.2117H42.8315L43.4475 19.6001V20.2117Z" fill="white"/>
<path d="M19.3657 13.2841C19.4668 13.2841 19.6736 13.2732 19.7389 13.2359C19.7715 13.2204 19.8461 13.18 19.8383 13.1224C19.8352 13.0929 19.8135 13.0743 19.787 13.0618V12.9872C19.7902 12.9732 19.8104 12.8488 19.7995 12.7929C19.7948 12.7664 19.7933 12.6949 19.7917 12.6421C19.7902 12.5892 19.787 12.5706 19.787 12.5472C19.7855 12.5037 19.7839 12.3933 19.7373 12.2456C19.7031 12.1353 19.8181 11.8616 19.8974 11.7C19.9285 11.6362 19.9565 11.5709 19.9829 11.5056C20.0467 11.3393 20.157 11.0315 20.2037 10.8216C20.227 10.7174 20.2581 10.649 20.2861 10.59C20.3374 10.4811 20.3778 10.3956 20.3358 10.1795C20.3094 10.0427 20.3389 9.80488 20.3716 9.52816C20.3809 9.44577 20.3918 9.3556 20.4011 9.25921C20.4058 9.45976 20.6001 9.68207 20.6001 9.68207L20.7665 10.3335C20.7665 10.3335 20.7991 10.4438 20.5146 11.2911C20.3016 11.9269 20.4353 12.6794 20.5162 13.0152C20.5581 13.1893 20.5768 13.3665 20.5721 13.5453C20.5566 14.349 20.3374 15.4901 20.2488 15.9285C20.0747 16.7012 20.0607 17.7101 20.0995 17.99C20.126 18.1874 20.2177 18.4408 20.0995 18.8512C20.0778 18.929 19.9907 18.9507 19.9456 18.974C19.9052 18.9942 19.9068 19.0533 19.9472 19.072C20.042 19.1171 20.2037 19.1653 20.4229 19.1295C20.9079 19.0502 21.1582 19.1684 21.2499 19.229C21.2266 19.3471 21.222 19.4762 21.222 19.5617C21.2142 19.599 21.2049 19.6379 21.194 19.6783C21.1473 19.84 21.3961 19.9301 21.5515 19.9332C21.707 19.9363 21.9899 19.854 22.0024 19.7685C22.0102 19.7109 21.9993 19.613 21.9868 19.5275C21.976 19.3409 21.9589 19.0642 21.9495 18.8808C22.0273 18.8885 22.1983 18.9041 22.4097 18.9041C22.7004 18.9041 23.0051 19.1295 23.557 19.2212C24.1089 19.3145 23.8135 19.1279 23.8135 19.1279C23.5088 18.9429 23.072 18.2014 22.9523 17.7506C22.8325 17.2997 22.9787 16.6919 23.0844 15.8974C23.1683 15.2647 23.1979 14.2247 23.201 13.9215C23.1963 13.7396 23.2165 13.6308 23.2119 13.5002C23.2243 13.5251 23.2476 13.5406 23.2694 13.5391L23.428 13.5158C23.4544 13.5111 23.4793 13.5018 23.4995 13.4862L23.5663 13.4365C23.5943 13.4147 23.6161 13.3867 23.6285 13.3525C23.6503 13.2888 23.6923 13.166 23.7218 13.0665C23.7467 12.981 23.7109 12.8551 23.672 12.7089C23.641 12.5939 23.6083 12.4757 23.6052 12.3762C23.6021 12.2612 23.5586 12.0731 23.5041 11.8352C23.4482 11.5943 23.3798 11.2942 23.3331 10.9786C23.257 10.4703 23.1279 10.1811 23.0797 10.0863C23.0689 10.0676 23.0642 10.0474 23.0642 10.0287V9.5064C23.0642 9.49551 23.0564 9.24678 23.0269 9.06022C23.0113 8.9685 23.0238 8.80837 23.0378 8.62182C23.0518 8.43993 23.0673 8.23472 23.0642 8.0264C23.058 7.68127 22.845 7.58644 22.7517 7.56312C22.7191 7.55535 22.646 7.52736 22.6087 7.50871C22.6071 7.48539 22.6118 7.45274 22.6289 7.40766C22.6771 7.28795 22.747 7.3719 22.7828 7.30661C22.8186 7.24131 22.8201 7.23665 22.8201 7.05476C22.8186 6.87442 22.8668 6.93194 22.8807 7.01123C22.8947 7.09052 22.9118 7.12627 22.9429 7.04699C22.974 6.9677 23.0004 6.92728 23.0004 6.87909C23.0004 6.83089 22.9336 6.7656 22.9647 6.76094C22.9958 6.75627 23.0486 6.79047 23.0486 6.85888C23.0486 6.92728 23.1279 6.8169 23.1062 6.71119C23.0844 6.60547 23.2119 6.79047 23.2694 6.66299C23.3269 6.53552 23.2119 6.54951 23.2165 6.48888C23.2212 6.42825 23.2165 6.3614 23.1948 6.29299C23.173 6.22615 23.3176 6.25568 23.3176 6.37073C23.3176 6.48577 23.4109 6.53862 23.4373 6.51375C23.4637 6.49043 23.3704 6.50909 23.3751 6.41736C23.3798 6.32564 23.4186 6.2106 23.3223 6.15152C23.2259 6.09245 23.1419 6.03648 23.145 6.00073C23.1497 5.96497 23.2507 5.93543 23.2678 6.00073C23.2849 6.06602 23.3471 6.15619 23.3736 6.11266C23.4 6.06913 23.2943 6.07379 23.3114 5.87014C23.3285 5.66648 23.131 5.75043 23.1217 5.62295C23.1124 5.49547 22.9756 5.64938 22.9538 5.51258C22.932 5.37577 22.9305 5.37577 22.8186 5.25295C22.7066 5.13014 22.7812 5.0493 22.6755 5.0011C22.5698 4.95291 22.489 4.99178 22.4486 4.90472C22.4066 4.8161 22.2791 4.88762 22.2465 4.85186C22.2138 4.8161 22.063 4.56892 21.6712 4.76325C21.6712 4.76325 21.4769 4.69329 21.3821 4.85186C21.2873 5.01043 21.2484 4.71505 21.0012 4.83476C20.7525 4.95447 20.8053 5.01976 20.7307 5.05085C20.6561 5.08195 20.5504 4.998 20.4789 5.16589C20.4089 5.33379 20.5193 5.3198 20.4167 5.37266C20.3156 5.42707 20.2597 5.31669 20.2332 5.48926C20.2068 5.66182 20.0031 5.57321 19.9814 5.73178C19.9596 5.89035 19.9021 5.81573 19.8275 5.85459C19.7528 5.89501 19.7528 5.96808 19.8104 5.97585C19.8679 5.98363 19.7886 5.94321 19.8415 5.91678C19.8943 5.89035 19.9472 5.93388 19.9954 5.88568C20.0436 5.83749 20.0809 5.88568 20.0778 5.9432C20.0747 6.00073 20.0047 6.03493 19.9783 6.08001C19.9518 6.1251 19.9301 6.13598 19.9301 6.19972C19.9301 6.26346 19.829 6.28056 19.8663 6.38161C19.9036 6.48266 19.8772 6.32875 19.9207 6.3132C19.9378 6.30699 19.9954 6.25257 20.014 6.29455C20.0311 6.33808 20.014 6.42514 19.9783 6.45157C19.9425 6.47799 19.9254 6.5806 19.9643 6.58682C20.0047 6.59304 20.0062 6.50753 20.0778 6.54795C20.1493 6.58837 19.9907 6.71585 20 6.77182C20.0094 6.82778 20.0638 6.66766 20.1508 6.74383C20.2363 6.82001 20.0824 7.0672 20.2565 7.18846C20.4384 7.31749 20.213 7.13715 20.2519 7.02989C20.2674 6.9848 20.3187 6.91018 20.3452 6.98636C20.3716 7.06098 20.4198 7.04388 20.3933 7.13871C20.3669 7.23354 20.4042 7.28018 20.3514 7.30194C20.2985 7.32371 20.2254 7.36102 20.2441 7.41388C20.2674 7.48073 20.2581 7.38589 20.3234 7.36724C20.3902 7.35014 20.3809 7.38745 20.384 7.45274C20.3856 7.48539 20.3996 7.51026 20.4198 7.52736C20.2301 7.51182 19.8679 7.52581 19.8244 7.87249C19.7591 8.39018 19.8073 8.56896 19.8073 8.56896C19.8073 8.57207 19.8259 8.85035 19.7622 9.25921C19.7326 9.44577 19.7389 9.58413 19.7435 9.7085C19.7497 9.86396 19.7544 9.98677 19.6876 10.1438C19.6176 10.3101 19.5414 10.8045 19.4683 11.2833C19.417 11.6176 19.3689 11.9332 19.3315 12.0669C19.3238 12.0948 19.3191 12.1228 19.316 12.1539C19.3113 12.2052 19.3004 12.3063 19.274 12.3995L19.1357 12.754C19.1232 12.7866 19.1217 12.8224 19.131 12.8566C19.26 13.2795 19.3362 13.2826 19.3657 13.2841ZM23.1621 13.0074C23.1886 13.0711 23.2197 13.166 23.2368 13.2219C23.2305 13.2701 23.2336 13.3339 23.271 13.3727C23.243 13.393 23.2212 13.424 23.2103 13.4582C23.201 13.2997 23.1777 13.1069 23.1621 13.0074ZM22.007 7.45896C22.0677 7.47762 22.276 7.60976 22.4688 7.58178C22.5061 7.57711 22.5605 7.56934 22.6133 7.59421C22.6553 7.61442 22.6942 7.62841 22.7315 7.63774C22.8248 7.66262 22.9802 7.74501 22.9849 8.0264C22.988 8.23161 22.9725 8.43526 22.96 8.6156C22.9445 8.81459 22.9336 8.97161 22.9491 9.0711C22.9787 9.25144 22.9849 9.50329 22.9849 9.50484V10.0614C22.9849 10.0723 22.988 10.0832 22.9927 10.0925C23.0284 10.1578 23.173 10.4547 23.2539 10.9864C23.302 11.3051 23.3704 11.6067 23.4264 11.8492C23.4793 12.0824 23.5228 12.2674 23.5259 12.3747C23.529 12.4851 23.5632 12.6079 23.5959 12.726C23.6301 12.8488 23.6643 12.9763 23.6472 13.0401C23.6192 13.138 23.5772 13.2593 23.5554 13.323C23.5492 13.3416 23.5368 13.3572 23.5212 13.3681L23.4544 13.4178C23.4435 13.4256 23.4311 13.4318 23.4171 13.4334L23.2865 13.4645C23.2974 13.4489 23.3207 13.4256 23.3409 13.4178C23.4 13.3945 23.4357 13.3432 23.4575 13.2919C23.4653 13.2748 23.4793 13.2422 23.4824 13.2235C23.487 13.1924 23.4964 13.1271 23.5041 13.0758C23.5119 13.023 23.5197 12.9468 23.5352 12.9157C23.4917 12.9281 23.4637 12.9437 23.4544 12.9608C23.442 12.9841 23.4357 13.0012 23.4264 13.0634C23.4218 13.0976 23.4155 13.138 23.4109 13.1706C23.4093 13.1784 23.4078 13.2157 23.3875 13.2577C23.3673 13.2935 23.3549 13.3183 23.3316 13.3152C23.2803 13.3028 23.2958 13.2188 23.3098 13.1737L23.33 13.1256C23.3394 13.1053 23.344 13.0836 23.3471 13.0603C23.3549 12.9825 23.3549 12.9281 23.3471 12.897C23.3378 12.8644 23.3129 12.81 23.2989 12.782C23.2896 12.7633 23.2849 12.7416 23.2849 12.7198L23.2756 12.5908C23.215 12.6732 23.2212 12.7229 23.2212 12.7229C23.2212 12.7556 23.229 12.7882 23.243 12.8193C23.2647 12.8644 23.2803 12.9017 23.2865 12.9219C23.2912 12.9359 23.3005 13.0012 23.2741 13.096C23.2601 13.0416 23.2414 12.9779 23.2197 12.9328C23.187 12.8659 23.1699 12.712 23.1808 12.6374C23.2103 12.3451 23.1777 12.0358 23.0999 11.4745C23.0004 10.7532 22.5698 10.1236 22.5698 10.1236L22.5449 9.609C22.5449 9.609 22.6227 9.39602 22.702 9.19081C22.7812 8.9856 22.702 8.59539 22.702 8.59539C22.6475 8.26581 21.8967 7.56312 21.8967 7.56312C21.9526 7.53825 21.9884 7.49316 22.007 7.45896ZM21.85 19.4466C21.791 19.4109 21.4987 19.3907 21.3992 19.414C21.3603 19.4233 21.3292 19.4156 21.3059 19.4016C21.3137 19.299 21.3308 19.1855 21.3712 19.1031C21.4241 18.9927 21.4256 18.8963 21.4287 18.7953C21.4303 18.6973 21.4334 18.5947 21.48 18.4641C21.5049 18.3942 21.5267 18.2978 21.5453 18.1843C21.7008 18.1563 21.8438 18.2029 21.9122 18.2309C21.92 18.4035 21.892 18.531 21.8765 18.6087C21.8687 18.6445 21.864 18.6693 21.864 18.6895C21.864 18.7315 21.892 19.2119 21.906 19.4404C21.8873 19.4529 21.8702 19.4591 21.85 19.4466ZM21.6557 14.859C21.7412 13.9759 22.6507 12.9592 22.7875 12.8053C22.8248 13.0276 22.8761 13.6355 22.5278 14.3988C22.5232 14.4066 22.4175 14.6149 22.4175 15.044C22.4175 15.2165 22.4097 15.3067 22.405 15.3782C22.3973 15.4777 22.3926 15.5383 22.419 15.728C22.4765 16.1415 22.2465 16.9437 22.0786 17.5282C22.0133 17.7568 21.9589 17.9433 21.9324 18.0708C21.7894 18.0148 21.6386 18.0164 21.5686 18.0211C21.6122 17.679 21.6324 17.2406 21.6324 16.8769C21.6324 16.597 21.6666 16.3638 21.6961 16.1586C21.7319 15.9161 21.7614 15.7202 21.7288 15.4948C21.6619 15.1466 21.6433 15.016 21.6557 14.859ZM21.0199 6.60858C20.9686 6.60236 20.9452 6.54951 20.9344 6.48732C20.9297 6.46556 20.9266 6.44535 20.9235 6.42825C20.939 6.41892 20.953 6.40804 20.9623 6.39871L20.9763 6.41115C20.9826 6.45157 20.9903 6.48888 21.0012 6.51686C21.0121 6.5464 21.0168 6.57749 21.0199 6.60858ZM21.138 6.9506C21.3292 7.10451 21.407 7.14648 21.5422 7.14648C21.6821 7.14804 21.7521 7.12161 21.9107 7.00346C21.9091 7.06409 21.9091 7.14337 21.9169 7.21955C21.4987 7.54291 21.2328 7.27396 21.1536 7.17291L21.138 6.9506ZM22.1718 6.51997C22.1625 6.58682 22.1345 6.63346 22.0925 6.64589C22.0957 6.60081 22.1003 6.55728 22.1159 6.51531C22.119 6.50598 22.1236 6.4951 22.1268 6.48421C22.1361 6.49665 22.1516 6.51064 22.1718 6.51997ZM22.0677 6.01316C22.0723 6.06291 22.091 6.35518 22.0428 6.48888C22.021 6.54795 22.0179 6.60392 22.0133 6.65833C22.007 6.75472 22.0024 6.83711 21.8951 6.91795C21.7148 7.05476 21.6868 7.07341 21.5562 7.06875C21.4287 7.07186 21.4007 7.05476 21.2189 6.91795C21.1116 6.83711 21.1069 6.75472 21.1007 6.65833C21.0976 6.60392 21.0929 6.54795 21.0712 6.48888C21.0307 6.38005 21.0339 6.12043 21.037 5.99451C21.0541 5.94165 21.0789 5.87636 21.1147 5.81106C21.1613 5.72556 21.2795 5.63073 21.2795 5.63073C21.3805 5.54989 21.5002 5.53123 21.6402 5.5701C21.6681 5.57787 21.693 5.59652 21.7132 5.61363C21.7972 5.68358 21.8376 5.66493 21.8718 5.738C21.9122 5.8235 21.9122 5.77064 21.9666 5.83438C22.0381 5.91211 21.9744 5.95875 22.0677 6.01316ZM20.496 7.52581C20.4695 7.50249 20.4338 7.4714 20.44 7.44031C20.454 7.37812 20.5597 7.38278 20.5333 7.4714C20.5255 7.49472 20.5255 7.51182 20.5286 7.52426C20.5208 7.52426 20.5037 7.52581 20.496 7.52581ZM19.7233 13.1224C19.7389 13.1256 19.742 13.1458 19.728 13.1535C19.7202 13.1582 19.7093 13.1644 19.7 13.1675L19.5694 13.1566C19.5616 13.1566 19.5539 13.1535 19.5476 13.1504L19.4202 13.0898C19.4031 13.082 19.3891 13.068 19.3828 13.0494L19.3207 12.8659L19.2865 12.9157C19.2818 12.9219 19.2802 12.9297 19.2818 12.9374L19.316 13.0774C19.3253 13.1147 19.3518 13.138 19.3844 13.1535L19.4886 13.2033C19.445 13.2064 19.4031 13.2064 19.3704 13.2048C19.3471 13.1955 19.2694 13.0929 19.2056 12.824C19.2025 12.8084 19.2025 12.7913 19.2087 12.7773L19.3471 12.4198C19.3766 12.3172 19.3875 12.2099 19.3922 12.157C19.3937 12.1322 19.3984 12.1073 19.4046 12.0855C19.4435 11.9472 19.4917 11.63 19.543 11.2927C19.6114 10.8418 19.6907 10.3303 19.756 10.1718C19.829 9.99766 19.8228 9.86085 19.8166 9.70228C19.8119 9.58257 19.8073 9.44732 19.8337 9.26854C19.899 8.8519 19.8803 8.57207 19.8772 8.55341C19.8772 8.55186 19.8321 8.37774 19.8943 7.88026C19.9285 7.60976 20.1912 7.58955 20.3452 7.60199C20.3965 7.6051 20.4509 7.60665 20.5068 7.60199C20.5364 7.60043 20.5597 7.60199 20.5799 7.60199C20.6281 7.6051 20.6685 7.60043 20.726 7.55846C20.7851 7.51493 20.9437 7.43098 20.9997 7.40144C21.009 7.50094 21.124 7.57867 21.124 7.57867C20.897 7.77921 20.527 8.35598 20.4353 8.499C20.4338 8.40262 20.4307 8.30623 20.4229 8.21451C20.3887 8.23005 20.3514 8.31089 20.3529 8.34043C20.3825 8.75396 20.3312 9.17682 20.2907 9.51728C20.255 9.8111 20.227 10.0443 20.255 10.192C20.2923 10.3832 20.2597 10.4516 20.2115 10.5542C20.1819 10.618 20.1477 10.6895 20.1228 10.803C20.0793 11.0004 19.972 11.2958 19.9099 11.4621C19.8834 11.5336 19.8539 11.602 19.8197 11.6689C19.7466 11.8166 19.6114 12.1213 19.658 12.2674C19.7015 12.4042 19.7031 12.4882 19.7031 12.5286C19.7031 12.5566 19.7078 12.6032 19.7093 12.6421C19.7109 12.7027 19.7124 12.7727 19.7186 12.8053C19.7233 12.8348 19.714 12.911 19.7078 12.9654C19.7047 12.9887 19.7047 13.0167 19.7047 13.0401L19.6471 13.0369C19.6425 12.9654 19.6254 12.8457 19.6005 12.7338C19.5881 12.6763 19.5072 12.6732 19.4886 12.7276C19.4497 12.8364 19.4357 12.9468 19.4357 12.9468C19.4341 12.981 19.4481 13.0152 19.4746 13.0369L19.5243 13.0789C19.5476 13.0991 19.5756 13.11 19.6067 13.1116L19.7233 13.1224ZM19.5787 13.023L19.5274 12.9794C19.5197 12.9732 19.5165 12.9639 19.5165 12.9545C19.5212 12.8753 19.5368 12.81 19.5476 12.7789C19.5492 12.7727 19.5585 12.7742 19.5601 12.7804C19.5678 12.8302 19.5865 12.939 19.5787 13.023ZM21.3681 9.01514C21.4754 8.72753 21.5204 7.87715 21.5204 7.87715C21.5344 8.03573 21.6479 8.44615 21.707 8.66224C21.7661 8.87833 22.1392 9.59346 22.1392 9.59346C22.0599 9.68673 21.6619 9.86241 21.6619 9.86241C21.4769 9.78778 21.0976 9.73026 21.0976 9.73026C21.0976 9.73026 21.2608 9.30274 21.3681 9.01514Z" fill="#33332D"/>
<path d="M21.4737 6.69253C21.4489 6.70341 21.4007 6.72984 21.3618 6.77026C21.3618 6.77026 21.3867 6.78581 21.3976 6.80913C21.4131 6.84333 21.4629 6.88841 21.5655 6.88841C21.6696 6.88841 21.7178 6.84488 21.7334 6.80913C21.7443 6.78581 21.7691 6.77026 21.7691 6.77026C21.7318 6.72984 21.6821 6.70341 21.6572 6.69253C21.6479 6.68787 21.6385 6.68787 21.6277 6.68942L21.5639 6.70186L21.5002 6.68942C21.4924 6.68631 21.4831 6.68787 21.4737 6.69253ZM21.6043 6.75938C21.6292 6.75161 21.6805 6.75627 21.7194 6.76094C21.7194 6.76094 21.651 6.75627 21.6183 6.76871C21.5857 6.78115 21.5639 6.78115 21.5639 6.78115C21.5639 6.78115 21.5406 6.78115 21.5095 6.76871C21.4815 6.75783 21.424 6.75938 21.4116 6.76094C21.4504 6.75472 21.5033 6.75005 21.5282 6.75938C21.5499 6.76715 21.5841 6.76715 21.6043 6.75938Z" fill="#33332D"/>
<path d="M21.6184 6.56196C21.6262 6.55885 21.6371 6.55419 21.6573 6.56196C21.707 6.57751 21.6884 6.55574 21.6884 6.55574C21.6355 6.50599 21.606 6.55574 21.606 6.55574C21.606 6.55574 21.5998 6.56818 21.6184 6.56196Z" fill="#33332D"/>
<path d="M21.458 6.55574C21.458 6.55574 21.4394 6.57751 21.4891 6.56196C21.5093 6.55574 21.5218 6.55885 21.528 6.56196C21.5466 6.56973 21.5404 6.55574 21.5404 6.55574C21.5404 6.55574 21.5109 6.50599 21.458 6.55574Z" fill="#33332D"/>
<path d="M21.4533 6.43445C21.4533 6.43445 21.3911 6.46399 21.3849 6.5184C21.3849 6.5184 21.3755 6.5697 21.4315 6.58991C21.4564 6.59924 21.4657 6.60857 21.4657 6.60857C21.4657 6.5868 21.4082 6.58991 21.4035 6.5355C21.3989 6.47798 21.4533 6.43445 21.4533 6.43445Z" fill="#33332D"/>
<path d="M22.0364 6.21838C22.0364 6.21838 22.0255 6.22926 22.0069 6.23703C22.0053 6.23548 22.0037 6.23392 22.0022 6.23237C22.0084 6.22615 22.0131 6.21993 22.0193 6.2075C22.0193 6.2075 22.01 6.21838 21.996 6.22771C21.9944 6.22615 21.9913 6.22304 21.9898 6.22149C21.9944 6.21682 21.9991 6.20905 22.0037 6.19972C22.0037 6.19972 21.996 6.20905 21.9851 6.21682C21.982 6.21371 21.9789 6.21216 21.9758 6.20905C21.9789 6.20439 21.982 6.19817 21.9835 6.19195C21.9835 6.19195 21.9789 6.19972 21.9711 6.20594C21.968 6.20439 21.9664 6.20128 21.9633 6.19972C21.9649 6.19506 21.9664 6.19039 21.968 6.18418C21.968 6.18418 21.9649 6.19039 21.9602 6.19661C21.9571 6.19506 21.954 6.19195 21.9509 6.19039C21.9524 6.18573 21.9524 6.18262 21.9524 6.18262C21.9509 6.18573 21.9493 6.18729 21.9493 6.18884C21.9462 6.18573 21.9416 6.18418 21.9385 6.18262C21.9385 6.17796 21.9385 6.1764 21.9385 6.1764C21.9385 6.17796 21.9369 6.17951 21.9353 6.18262C21.8187 6.11733 21.7472 6.2106 21.7472 6.2106C21.7472 6.2106 21.7877 6.16863 21.8592 6.16863C21.884 6.16863 21.9089 6.17796 21.9322 6.19039C21.9276 6.19661 21.9245 6.19972 21.9198 6.20283C21.9167 6.20128 21.912 6.20128 21.9089 6.19972C21.9105 6.18884 21.9105 6.18107 21.9105 6.18107C21.9089 6.19195 21.9027 6.19661 21.9011 6.19661C21.898 6.19661 21.8965 6.19506 21.8934 6.19506C21.8965 6.18418 21.8949 6.1764 21.8949 6.1764C21.8934 6.18573 21.8887 6.19195 21.8871 6.1935C21.884 6.1935 21.8794 6.19195 21.8763 6.19195C21.8763 6.17951 21.8716 6.17174 21.8716 6.17174C21.8732 6.17951 21.8716 6.18573 21.87 6.19039C21.8623 6.19039 21.8545 6.19039 21.8467 6.19039C21.8452 6.18729 21.8421 6.18107 21.8421 6.17329C21.8421 6.17329 21.8374 6.18107 21.8405 6.19039C21.8358 6.19039 21.8312 6.19195 21.8265 6.19195C21.8234 6.18884 21.8203 6.18262 21.8219 6.17485C21.8219 6.17485 21.8172 6.18107 21.8203 6.1935C21.8156 6.19506 21.8125 6.19661 21.8079 6.19661C21.8048 6.1935 21.8001 6.18573 21.8016 6.17951C21.8016 6.17951 21.7954 6.18573 21.8016 6.19817C21.7954 6.19972 21.7892 6.20283 21.7845 6.20439C21.7814 6.20128 21.7768 6.19661 21.7768 6.18884C21.7768 6.18884 21.7737 6.19661 21.7799 6.20594C21.7752 6.2075 21.7706 6.2106 21.7659 6.21371C21.7628 6.21216 21.7581 6.20905 21.7566 6.20439C21.7566 6.20439 21.755 6.20905 21.7597 6.21527C21.7255 6.23392 21.7021 6.25724 21.7021 6.25724C21.7021 6.25724 21.7208 6.27279 21.7379 6.26968C21.7566 6.26657 21.7706 6.27279 21.8436 6.29455C21.926 6.31943 21.996 6.26191 21.996 6.26191C22.0037 6.26035 22.0286 6.25413 22.0488 6.22304C22.0488 6.22304 22.0177 6.25102 21.9898 6.24947C21.9975 6.25258 22.0193 6.24947 22.0364 6.21838ZM21.7581 6.26191C21.7317 6.26346 21.7224 6.2588 21.7224 6.2588C21.7519 6.23859 21.7799 6.22615 21.8032 6.21838C21.7954 6.24014 21.8016 6.26346 21.8187 6.27745C21.7939 6.26968 21.7721 6.26035 21.7581 6.26191ZM21.8265 6.2417C21.8234 6.2417 21.8203 6.23703 21.8203 6.23392C21.8203 6.23081 21.825 6.22771 21.8281 6.22771C21.8312 6.22771 21.8343 6.23237 21.8343 6.23548C21.8343 6.24014 21.8312 6.24325 21.8265 6.2417ZM21.9804 6.22304C21.9758 6.22615 21.9695 6.22771 21.9633 6.22771C21.9633 6.22771 21.968 6.2246 21.9727 6.21682C21.9758 6.21993 21.9773 6.22149 21.9804 6.22304ZM21.9618 6.20905C21.9633 6.2106 21.9649 6.21216 21.968 6.21371C21.9633 6.21682 21.9587 6.21993 21.954 6.22149C21.954 6.22149 21.9587 6.21682 21.9618 6.20905ZM21.9571 6.20439C21.9524 6.20905 21.9478 6.21371 21.9447 6.21371C21.9447 6.21371 21.9431 6.21371 21.9431 6.21216C21.9462 6.2075 21.9493 6.20283 21.9509 6.19972C21.9524 6.20283 21.954 6.20283 21.9571 6.20439ZM21.9369 6.19195C21.94 6.1935 21.9431 6.19506 21.9462 6.19817C21.9416 6.20439 21.9369 6.2075 21.9338 6.20905C21.9322 6.20905 21.9307 6.2075 21.9307 6.2075C21.9338 6.20283 21.9369 6.19661 21.9369 6.19195ZM21.8483 6.22615C21.8498 6.21993 21.8561 6.21527 21.8623 6.21527C21.8685 6.21682 21.8732 6.22304 21.8732 6.22926C21.8716 6.23548 21.8654 6.24014 21.8592 6.24014C21.8529 6.24014 21.8483 6.23392 21.8483 6.22615ZM21.8576 6.28834C21.8747 6.28678 21.8918 6.27745 21.8996 6.26035C21.9074 6.24636 21.9058 6.22926 21.8996 6.21527C21.9478 6.23081 21.9711 6.26657 21.9711 6.26657C21.9711 6.26657 21.9198 6.30077 21.8576 6.28834ZM21.9851 6.22771C21.9866 6.22926 21.9882 6.23081 21.9898 6.23237C21.9851 6.23548 21.9789 6.23548 21.9727 6.23703C21.9758 6.23548 21.9804 6.23392 21.9851 6.22771ZM21.9975 6.23859L21.9991 6.24014C21.996 6.2417 21.9913 6.24325 21.9882 6.24325C21.9898 6.24325 21.9929 6.2417 21.9975 6.23859Z" fill="#33332D"/>
<path d="M21.9696 6.07998C22.038 6.09863 22.0426 6.11418 22.0691 6.16393C22.0691 6.16393 22.0753 6.05666 21.9851 6.01624C21.8949 5.97737 21.7131 6.038 21.7131 6.038L21.6851 6.11107C21.6835 6.11263 21.9012 6.06132 21.9696 6.07998Z" fill="#33332D"/>
<path d="M21.3943 6.26499C21.4114 6.27121 21.4316 6.25722 21.4316 6.25722C21.4316 6.25722 21.4114 6.23235 21.3787 6.21058C21.385 6.20436 21.3834 6.1997 21.3834 6.1997C21.3818 6.20436 21.3772 6.20592 21.3741 6.20747C21.3694 6.20436 21.3647 6.20126 21.3601 6.19815C21.3663 6.19037 21.3647 6.18105 21.3647 6.18105C21.3632 6.18882 21.3585 6.19193 21.3554 6.19504C21.3508 6.19193 21.3445 6.18882 21.3383 6.18571C21.3445 6.17327 21.3399 6.16705 21.3399 6.16705C21.3399 6.17327 21.3352 6.18105 21.3321 6.18415C21.3274 6.1826 21.3243 6.18105 21.3197 6.17949C21.3259 6.16705 21.3212 6.15928 21.3212 6.15928C21.3212 6.16861 21.3165 6.17483 21.3134 6.17638C21.3088 6.17483 21.3041 6.17327 21.301 6.17172C21.3057 6.16239 21.3026 6.15462 21.3026 6.15462C21.3026 6.16239 21.2979 6.16861 21.2963 6.17172C21.2886 6.17016 21.2823 6.16861 21.2746 6.16861C21.273 6.16394 21.273 6.15773 21.2746 6.14995C21.2746 6.14995 21.2699 6.15773 21.2684 6.16861C21.2652 6.16861 21.2606 6.16861 21.2575 6.17016C21.2559 6.16861 21.2513 6.16084 21.2513 6.15151C21.2513 6.15151 21.2481 6.15928 21.2513 6.17016C21.2481 6.17016 21.2435 6.17172 21.2435 6.17172C21.2373 6.16705 21.2357 6.15462 21.2357 6.15462C21.2357 6.15462 21.2342 6.16239 21.2342 6.17327C21.231 6.17327 21.2279 6.17483 21.2233 6.17638C21.2202 6.17327 21.2155 6.16861 21.2124 6.16239C21.2357 6.15306 21.2621 6.14529 21.287 6.1484C21.3585 6.15617 21.3943 6.20126 21.3943 6.20126C21.3943 6.20126 21.3336 6.10176 21.2093 6.15306C21.2093 6.15151 21.2077 6.14995 21.2077 6.14684C21.2077 6.14684 21.2077 6.14995 21.2077 6.15306C21.2031 6.15462 21.2 6.15617 21.1953 6.15773C21.1937 6.15462 21.1937 6.15306 21.1922 6.14995C21.1922 6.14995 21.1922 6.15306 21.1922 6.15773C21.1891 6.15928 21.186 6.16239 21.1829 6.16394C21.1782 6.15773 21.1766 6.15151 21.1766 6.15151C21.1766 6.15617 21.1782 6.16239 21.1797 6.16705C21.1766 6.16861 21.1735 6.17016 21.1704 6.17172C21.1642 6.16394 21.1595 6.15617 21.1595 6.15617C21.1611 6.16394 21.1626 6.16861 21.1658 6.17483C21.1626 6.17638 21.1595 6.17949 21.1564 6.18105C21.1471 6.17172 21.1409 6.16239 21.1409 6.16239C21.1455 6.17172 21.1486 6.17949 21.1518 6.18571C21.1502 6.18726 21.1471 6.18882 21.144 6.19037C21.1315 6.18105 21.1238 6.16861 21.1238 6.16861C21.1284 6.18105 21.1347 6.18882 21.1393 6.19504C21.1378 6.19659 21.1362 6.19815 21.1347 6.19815C21.1176 6.18726 21.1082 6.17638 21.1082 6.17638C21.1222 6.20903 21.144 6.21525 21.1502 6.2168C21.1222 6.21525 21.0942 6.18415 21.0942 6.18415C21.1098 6.2168 21.1347 6.22613 21.1424 6.22768C21.1424 6.22768 21.2046 6.29298 21.2901 6.27743C21.3616 6.26344 21.3756 6.25878 21.3943 6.26499ZM21.2077 6.16239C21.2093 6.16705 21.2108 6.17172 21.2124 6.17794C21.2108 6.17794 21.2093 6.17794 21.2077 6.17949C21.2046 6.17794 21.2015 6.17327 21.1968 6.16705C21.2015 6.1655 21.2046 6.16394 21.2077 6.16239ZM21.1937 6.17016C21.1953 6.17483 21.1968 6.17949 21.2 6.18415L21.1984 6.18571C21.1953 6.18415 21.1906 6.17949 21.1875 6.17483C21.1891 6.17172 21.1922 6.17016 21.1937 6.17016ZM21.1813 6.17638C21.1844 6.18415 21.1891 6.18882 21.1891 6.18882C21.1844 6.18726 21.1797 6.18415 21.1766 6.17949C21.1766 6.17949 21.1782 6.17794 21.1813 6.17638ZM21.1689 6.18415C21.1735 6.19193 21.1766 6.19504 21.1766 6.19504C21.1704 6.19504 21.1658 6.19193 21.1611 6.18882C21.1642 6.18726 21.1658 6.18571 21.1689 6.18415ZM21.1549 6.19348C21.1595 6.1997 21.1642 6.20281 21.1658 6.20281C21.1595 6.20281 21.1549 6.1997 21.1502 6.19659C21.1518 6.19504 21.1533 6.19348 21.1549 6.19348ZM21.1409 6.20436C21.1409 6.20436 21.1424 6.20281 21.144 6.20281C21.1471 6.20592 21.1502 6.20903 21.1518 6.20903C21.1486 6.20747 21.144 6.20592 21.1409 6.20436ZM21.1658 6.2339C21.1658 6.2339 21.1937 6.1997 21.2435 6.19037C21.2357 6.20281 21.2326 6.21991 21.2388 6.2339C21.245 6.251 21.2606 6.26344 21.2777 6.26655C21.2093 6.27588 21.1658 6.2339 21.1658 6.2339ZM21.2792 6.21991C21.273 6.21991 21.2668 6.21525 21.2668 6.20747C21.2668 6.20126 21.2715 6.19504 21.2792 6.19348C21.2855 6.19348 21.2917 6.19815 21.2917 6.20592C21.2917 6.21369 21.287 6.21836 21.2792 6.21991ZM21.3041 6.2168C21.3041 6.21369 21.3072 6.20903 21.3103 6.20903C21.3134 6.20903 21.3181 6.21214 21.3181 6.21525C21.3181 6.21836 21.315 6.22302 21.3119 6.22302C21.3088 6.22457 21.3057 6.22147 21.3041 6.2168ZM21.3165 6.26033C21.3352 6.24789 21.3445 6.22613 21.3383 6.20281C21.3616 6.21214 21.3865 6.22768 21.4145 6.25256C21.4145 6.25256 21.4052 6.25567 21.3787 6.251C21.3647 6.24789 21.3414 6.25411 21.3165 6.26033Z" fill="#33332D"/>
<path d="M21.1877 6.04733C21.2515 6.03644 21.4365 6.10018 21.4645 6.10951C21.4707 6.12506 21.4785 6.14838 21.4847 6.17791C21.4971 6.24632 21.452 6.33027 21.452 6.33027C21.4909 6.28829 21.5111 6.22766 21.5096 6.18102C21.508 6.15926 21.5049 6.13283 21.4925 6.1064L21.4754 6.04577C21.4754 6.04577 21.2919 5.95249 21.1815 5.98514C21.0867 6.01313 21.082 6.12195 21.082 6.12195C21.1116 6.07376 21.1178 6.05821 21.1877 6.04733Z" fill="#33332D"/>
</svg>
