<svg width="20" height="20" viewBox="0 0 20 20" fill="none" xmlns="http://www.w3.org/2000/svg">
<path fill-rule="evenodd" clip-rule="evenodd" d="M10 3.75C10.6904 3.75 11.25 4.30964 11.25 5L11.25 8.75L15 8.75C15.6904 8.75 16.25 9.30964 16.25 10C16.25 10.6904 15.6904 11.25 15 11.25L11.25 11.25L11.25 15C11.25 15.6904 10.6904 16.25 10 16.25C9.30964 16.25 8.75 15.6904 8.75 15L8.75 11.25H5C4.30964 11.25 3.75 10.6904 3.75 10C3.75 9.30964 4.30964 8.75 5 8.75H8.75V5C8.75 4.30964 9.30965 3.75 10 3.75Z" fill="black"/>
</svg>
