<svg width="32" height="32" viewBox="0 0 32 32" fill="none" xmlns="http://www.w3.org/2000/svg">
<rect x="0.5" y="0.5" width="31" height="31" rx="15.5" stroke="#8041FF"/>
<g clip-path="url(#clip0_77_248)">
<path fill-rule="evenodd" clip-rule="evenodd" d="M28 16C28 22.6274 22.6274 28 16 28C9.37258 28 4 22.6274 4 16C4 9.37258 9.37258 4 16 4C22.6274 4 28 9.37258 28 16ZM16.4292 12.8591C15.262 13.3445 12.9293 14.3493 9.43104 15.8734C8.86298 16.0993 8.5654 16.3203 8.53831 16.5364C8.49253 16.9016 8.94986 17.0454 9.57262 17.2412C9.65733 17.2679 9.7451 17.2955 9.83508 17.3247C10.4478 17.5239 11.272 17.7569 11.7004 17.7662C12.0891 17.7745 12.5229 17.6143 13.0018 17.2855C16.2703 15.0791 17.9575 13.9639 18.0635 13.9399C18.1382 13.9229 18.2417 13.9016 18.3119 13.964C18.3821 14.0263 18.3752 14.1444 18.3677 14.1761C18.3224 14.3693 16.5273 16.0382 15.5983 16.9019C15.3086 17.1712 15.1032 17.3621 15.0612 17.4058C14.9671 17.5035 14.8713 17.5959 14.7791 17.6847C14.2099 18.2335 13.7831 18.6449 14.8028 19.3169C15.2928 19.6398 15.6849 19.9069 16.0761 20.1732C16.5033 20.4642 16.9294 20.7544 17.4808 21.1158C17.6212 21.2079 17.7554 21.3035 17.886 21.3966C18.3832 21.7511 18.8299 22.0695 19.3817 22.0188C19.7024 21.9892 20.0336 21.6877 20.2018 20.7885C20.5994 18.6633 21.3808 14.0586 21.5614 12.1611C21.5772 11.9949 21.5573 11.7821 21.5413 11.6887C21.5253 11.5953 21.4919 11.4622 21.3705 11.3637C21.2267 11.2471 21.0048 11.2225 20.9055 11.2242C20.4542 11.2322 19.7617 11.4729 16.4292 12.8591Z" fill="white"/>
</g>
<defs>
<clipPath id="clip0_77_248">
<rect width="24" height="24" fill="white" transform="translate(4 4)"/>
</clipPath>
</defs>
</svg>
